<svg width="131" height="35" viewBox="0 0 131 35" fill="none" xmlns="http://www.w3.org/2000/svg">
<path d="M17.5 5.25L29.75 29.75H24.5L22.75 24.5H12.25L10.5 29.75H5.25L17.5 5.25ZM14.7 20.3H20.3L17.5 12.25L14.7 20.3Z" fill="white"/>
<path d="M17.5 18.9C18.2732 18.9 18.9 18.2732 18.9 17.5C18.9 16.7268 18.2732 16.1 17.5 16.1C16.7268 16.1 16.1 16.7268 16.1 17.5C16.1 18.2732 16.7268 18.9 17.5 18.9Z" fill="white" fill-opacity="0.5"/>
<path d="M47.9759 24.8333H46.0369L51.6449 9.56061H53.554L59.1619 24.8333H57.223L52.6591 11.9768H52.5398L47.9759 24.8333ZM48.6918 18.8674H56.5071V20.5081H48.6918V18.8674ZM68.1621 20.1501V13.3788H69.922V24.8333H68.1621V22.8944H68.0427C67.7743 23.4761 67.3567 23.9708 66.7899 24.3784C66.2231 24.7811 65.5072 24.9825 64.6422 24.9825C63.9263 24.9825 63.2899 24.8259 62.7331 24.5127C62.1763 24.1945 61.7388 23.7172 61.4206 23.0808C61.1024 22.4395 60.9433 21.6316 60.9433 20.6572V13.3788H62.7033V20.5379C62.7033 21.3731 62.9369 22.0393 63.4043 22.5365C63.8766 23.0336 64.4781 23.2822 65.2089 23.2822C65.6464 23.2822 66.0914 23.1703 66.5438 22.9466C67.0012 22.7229 67.384 22.3799 67.6923 21.9175C68.0055 21.4551 68.1621 20.866 68.1621 20.1501ZM77.7681 13.3788V14.8703H71.832V13.3788H77.7681ZM73.5621 10.6345H75.3221V21.5521C75.3221 22.0492 75.3942 22.4221 75.5384 22.6707C75.6875 22.9143 75.8764 23.0784 76.1051 23.1629C76.3388 23.2424 76.5849 23.2822 76.8434 23.2822C77.0373 23.2822 77.1964 23.2723 77.3207 23.2524C77.445 23.2275 77.5444 23.2076 77.619 23.1927L77.9769 24.7737C77.8576 24.8184 77.6911 24.8632 77.4773 24.9079C77.2635 24.9576 76.9925 24.9825 76.6644 24.9825C76.1673 24.9825 75.68 24.8756 75.2028 24.6618C74.7305 24.448 74.3377 24.1224 74.0245 23.6849C73.7163 23.2474 73.5621 22.6956 73.5621 22.0294V10.6345ZM84.587 25.072C83.5529 25.072 82.6456 24.8259 81.865 24.3337C81.0894 23.8415 80.4829 23.1529 80.0454 22.268C79.6129 21.3831 79.3966 20.349 79.3966 19.1657C79.3966 17.9725 79.6129 16.931 80.0454 16.0411C80.4829 15.1512 81.0894 14.4601 81.865 13.9679C82.6456 13.4757 83.5529 13.2296 84.587 13.2296C85.621 13.2296 86.5259 13.4757 87.3014 13.9679C88.082 14.4601 88.6885 15.1512 89.121 16.0411C89.5585 16.931 89.7773 17.9725 89.7773 19.1657C89.7773 20.349 89.5585 21.3831 89.121 22.268C88.6885 23.1529 88.082 23.8415 87.3014 24.3337C86.5259 24.8259 85.621 25.072 84.587 25.072ZM84.587 23.491C85.3725 23.491 86.0188 23.2897 86.5259 22.887C87.033 22.4843 87.4083 21.9548 87.6519 21.2985C87.8956 20.6423 88.0174 19.9313 88.0174 19.1657C88.0174 18.4001 87.8956 17.6867 87.6519 17.0255C87.4083 16.3642 87.033 15.8298 86.5259 15.4221C86.0188 15.0144 85.3725 14.8106 84.587 14.8106C83.8014 14.8106 83.1551 15.0144 82.648 15.4221C82.1409 15.8298 81.7656 16.3642 81.522 17.0255C81.2784 17.6867 81.1566 18.4001 81.1566 19.1657C81.1566 19.9313 81.2784 20.6423 81.522 21.2985C81.7656 21.9548 82.1409 22.4843 82.648 22.887C83.1551 23.2897 83.8014 23.491 84.587 23.491ZM97.2058 13.3788V14.8703H91.0311V13.3788H97.2058ZM92.8805 24.8333V11.7978C92.8805 11.1416 93.0346 10.5947 93.3429 10.1572C93.6511 9.7197 94.0513 9.39157 94.5435 9.17282C95.0357 8.95407 95.5552 8.8447 96.1021 8.8447C96.5346 8.8447 96.8876 8.8795 97.161 8.9491C97.4345 9.0187 97.6383 9.08334 97.7725 9.14299L97.2654 10.6643C97.176 10.6345 97.0517 10.5972 96.8926 10.5524C96.7385 10.5077 96.5346 10.4853 96.2811 10.4853C95.6994 10.4853 95.2793 10.632 95.0208 10.9253C94.7672 11.2186 94.6404 11.6487 94.6404 12.2154V24.8333H92.8805ZM103.495 25.072C102.461 25.072 101.554 24.8259 100.773 24.3337C99.9976 23.8415 99.3911 23.1529 98.9536 22.268C98.5211 21.3831 98.3048 20.349 98.3048 19.1657C98.3048 17.9725 98.5211 16.931 98.9536 16.0411C99.3911 15.1512 99.9976 14.4601 100.773 13.9679C101.554 13.4757 102.461 13.2296 103.495 13.2296C104.529 13.2296 105.434 13.4757 106.21 13.9679C106.99 14.4601 107.597 15.1512 108.029 16.0411C108.467 16.931 108.686 17.9725 108.686 19.1657C108.686 20.349 108.467 21.3831 108.029 22.268C107.597 23.1529 106.99 23.8415 106.21 24.3337C105.434 24.8259 104.529 25.072 103.495 25.072ZM103.495 23.491C104.281 23.491 104.927 23.2897 105.434 22.887C105.941 22.4843 106.317 21.9548 106.56 21.2985C106.804 20.6423 106.926 19.9313 106.926 19.1657C106.926 18.4001 106.804 17.6867 106.56 17.0255C106.317 16.3642 105.941 15.8298 105.434 15.4221C104.927 15.0144 104.281 14.8106 103.495 14.8106C102.71 14.8106 102.063 15.0144 101.556 15.4221C101.049 15.8298 100.674 16.3642 100.43 17.0255C100.187 17.6867 100.065 18.4001 100.065 19.1657C100.065 19.9313 100.187 20.6423 100.43 21.2985C100.674 21.9548 101.049 22.4843 101.556 22.887C102.063 23.2897 102.71 23.491 103.495 23.491ZM112.773 9.56061V24.8333H111.013V9.56061H112.773ZM115.638 24.8333V13.3788H117.398V24.8333H115.638ZM116.533 11.4697C116.189 11.4697 115.894 11.3529 115.645 11.1192C115.402 10.8855 115.28 10.6046 115.28 10.2765C115.28 9.94839 115.402 9.6675 115.645 9.43383C115.894 9.20017 116.189 9.08334 116.533 9.08334C116.876 9.08334 117.169 9.20017 117.413 9.43383C117.661 9.6675 117.785 9.94839 117.785 10.2765C117.785 10.6046 117.661 10.8855 117.413 11.1192C117.169 11.3529 116.876 11.4697 116.533 11.4697ZM124.916 25.072C123.881 25.072 122.974 24.8259 122.194 24.3337C121.418 23.8415 120.812 23.1529 120.374 22.268C119.941 21.3831 119.725 20.349 119.725 19.1657C119.725 17.9725 119.941 16.931 120.374 16.0411C120.812 15.1512 121.418 14.4601 122.194 13.9679C122.974 13.4757 123.881 13.2296 124.916 13.2296C125.95 13.2296 126.854 13.4757 127.63 13.9679C128.411 14.4601 129.017 15.1512 129.45 16.0411C129.887 16.931 130.106 17.9725 130.106 19.1657C130.106 20.349 129.887 21.3831 129.45 22.268C129.017 23.1529 128.411 23.8415 127.63 24.3337C126.854 24.8259 125.95 25.072 124.916 25.072ZM124.916 23.491C125.701 23.491 126.347 23.2897 126.854 22.887C127.362 22.4843 127.737 21.9548 127.981 21.2985C128.224 20.6423 128.346 19.9313 128.346 19.1657C128.346 18.4001 128.224 17.6867 127.981 17.0255C127.737 16.3642 127.362 15.8298 126.854 15.4221C126.347 15.0144 125.701 14.8106 124.916 14.8106C124.13 14.8106 123.484 15.0144 122.977 15.4221C122.47 15.8298 122.094 16.3642 121.851 17.0255C121.607 17.6867 121.485 18.4001 121.485 19.1657C121.485 19.9313 121.607 20.6423 121.851 21.2985C122.094 21.9548 122.47 22.4843 122.977 22.887C123.484 23.2897 124.13 23.491 124.916 23.491Z" fill="white"/>
</svg>
